<?xml version="1.0" encoding="UTF-8" standalone="no"?>
<!-- Created with Inkscape (http://www.inkscape.org/) -->
<svg xmlns:dc="http://purl.org/dc/elements/1.1/" xmlns:cc="http://creativecommons.org/ns#" xmlns:rdf="http://www.w3.org/1999/02/22-rdf-syntax-ns#" xmlns:svg="http://www.w3.org/2000/svg" xmlns="http://www.w3.org/2000/svg" xmlns:xlink="http://www.w3.org/1999/xlink" version="1.0" width="550" height="550" id="svg2">
  <metadata id="metadata7">
    <rdf:RDF>
      <cc:Work rdf:about="">
        <dc:format>image/svg+xml</dc:format>
        <dc:type rdf:resource="http://purl.org/dc/dcmitype/StillImage"/>
        <dc:title/>
      </cc:Work>
    </rdf:RDF>
  </metadata>
  <defs id="defs5">
    <linearGradient id="linearGradient4788">
      <stop id="stop4790" style="stop-color:#fffcfa;stop-opacity:1" offset="0"/>
      <stop id="stop4794" style="stop-color:#ffd900;stop-opacity:1" offset="0.6974"/>
      <stop id="stop4796" style="stop-color:#000000;stop-opacity:1" offset="1"/>
    </linearGradient>
    <linearGradient id="linearGradient4714">
      <stop id="stop4716" style="stop-color:#fffcfa;stop-opacity:1" offset="0"/>
      <stop id="stop4718" style="stop-color:#ffffff;stop-opacity:1" offset="0.8297"/>
      <stop id="stop4747" style="stop-color:#ffcabc;stop-opacity:1" offset="0.9701"/>
      <stop id="stop4720" style="stop-color:#ffffff;stop-opacity:1" offset="1"/>
    </linearGradient>
    <linearGradient id="linearGradient4686">
      <stop id="stop4688" style="stop-color:#fffdfa;stop-opacity:1" offset="0"/>
      <stop id="stop4690" style="stop-color:#ffffff;stop-opacity:1" offset="0.86"/>
      <stop id="stop4692" style="stop-color:#ffe08a;stop-opacity:1" offset="1"/>
    </linearGradient>
    <linearGradient id="linearGradient4654">
      <stop id="stop4656" style="stop-color:#faffff;stop-opacity:1" offset="0"/>
      <stop id="stop4658" style="stop-color:#ffffff;stop-opacity:1" offset="0.84"/>
      <stop id="stop4660" style="stop-color:#bfbfbf;stop-opacity:1" offset="1"/>
    </linearGradient>
    <linearGradient id="linearGradient4624">
      <stop id="stop4626" style="stop-color:#faffff;stop-opacity:1" offset="0"/>
      <stop id="stop4628" style="stop-color:#ffffff;stop-opacity:1" offset="0.76"/>
      <stop id="stop4630" style="stop-color:#00c7c1;stop-opacity:1" offset="1"/>
    </linearGradient>
    <linearGradient id="linearGradient4594">
      <stop id="stop4596" style="stop-color:#fffafd;stop-opacity:1" offset="0"/>
      <stop id="stop4598" style="stop-color:#ffffff;stop-opacity:1" offset="0.7"/>
      <stop id="stop4600" style="stop-color:#ff9ec5;stop-opacity:1" offset="1"/>
    </linearGradient>
    <linearGradient id="linearGradient4551">
      <stop id="stop4553" style="stop-color:#fffafd;stop-opacity:1" offset="0"/>
      <stop id="stop4559" style="stop-color:#ffffff;stop-opacity:1" offset="0.64"/>
      <stop id="stop4555" style="stop-color:#f5b9ff;stop-opacity:1" offset="1"/>
    </linearGradient>
    <radialGradient cx="271.7" cy="271.1" r="52.94" fx="271.7" fy="271.1" id="radialGradient4549" xlink:href="#linearGradient4551" gradientUnits="userSpaceOnUse" gradientTransform="matrix(0.9269, 0, 0, 0.9318, 22.03, 18.94)"/>
    <radialGradient cx="262.3" cy="263.2" r="52.94" fx="262.3" fy="263.2" id="radialGradient4602" xlink:href="#linearGradient4594" gradientUnits="userSpaceOnUse" gradientTransform="matrix(1.488, -0.0049, 0.0049, 1.499, -117.7, -123.3)"/>
    <radialGradient cx="257.6" cy="259.4" r="52.94" fx="257.6" fy="259.4" id="radialGradient4632" xlink:href="#linearGradient4624" gradientUnits="userSpaceOnUse" gradientTransform="matrix(2.07, -0.0049, 0.005, 2.07, -260.6, -262.5)"/>
    <radialGradient cx="253.5" cy="255.9" r="52.94" fx="253.5" fy="255.9" id="radialGradient4684" xlink:href="#linearGradient4686" gradientUnits="userSpaceOnUse" gradientTransform="matrix(3.193, -0.0099, 0.0099, 3.202, -538.1, -547.2)"/>
    <radialGradient cx="254.9" cy="257.6" r="52.94" fx="254.9" fy="257.6" id="radialGradient4731" xlink:href="#linearGradient4654" gradientUnits="userSpaceOnUse" gradientTransform="matrix(2.646, 0.005, -0.0048, 2.602, -399.4, -401.7)"/>
    <radialGradient cx="251.2" cy="254.1" r="52.94" fx="251.2" fy="254.1" id="radialGradient4742" xlink:href="#linearGradient4714" gradientUnits="userSpaceOnUse" gradientTransform="matrix(3.993, 0.0041, -0.0047, 4.018, -728.1, -752.2)"/>
    <radialGradient cx="251.2" cy="253.7" r="52.94" fx="251.2" fy="253.7" id="radialGradient4786" xlink:href="#linearGradient4788" gradientUnits="userSpaceOnUse" gradientTransform="matrix(5.042, -6.177e-05, 6.219e-05, 5.045, -992.2, -1010)"/>
    <radialGradient cx="273.8" cy="269.8" r="214.6" fx="273.8" fy="269.8" id="radialGradient3816" xlink:href="#linearGradient4714" gradientUnits="userSpaceOnUse" gradientTransform="matrix(0.9669, 0, 0, 0.9669, 9.085, 9.01)"/>
  </defs>
  <rect width="564" height="562.9" rx="0" ry="0" x="-5.059" y="-6.403" id="rect1873" style="fill:#000000;fill-opacity:1;fill-rule:evenodd;stroke:none"/>
  <path d="m 539,269.8 a 265.1,267.1 0 0 1 -530.286,0 265.1,267.1 0 1 1 530.286,0 z" id="path4784" style="fill:url(#radialGradient4786);fill-opacity:1;fill-rule:evenodd;stroke:none"/>
  <path d="m 481.1,269.8 a 207.5,198.3 0 1 1 -414.53,0 207.5,198.3 0 1 1 414.53,0 z" id="path4701" style="fill:url(#radialGradient3816);fill-opacity:1;fill-rule:evenodd;stroke:none"/>
  <path d="m 265.7,77.52 5.3,0 0,6.02 5.8,0 0,-6.02 5.3,0 0,17.18 -5.3,0 0,-6.95 -5.8,0 0,6.95 -5.3,0 0,-17.18" id="text4703" style="font-size:24px;font-style:normal;font-variant:normal;font-weight:normal;font-stretch:normal;text-align:start;line-height:100%;writing-mode:lr-tb;text-anchor:start;fill:#000000;fill-opacity:1;stroke:none;font-family:Arial Black"/>
  <path d="m 443.2,269.8 a 169.4,169 0 0 1 -338.7,0 169.4,169 0 1 1 338.7,0 z" id="path4671" style="fill:url(#radialGradient4684);fill-opacity:1;fill-rule:evenodd;stroke:none"/>
  <path d="m 257.2,107.9 5.3,0 0,6 5.8,0 0,-6 5.4,0 0,17.1 -5.4,0 0,-6.9 -5.8,0 0,6.9 -5.3,0 0,-17.1 m 33.5,12.1 -9.5,0 c 0,0.8 0.3,1.3 0.6,1.7 0.4,0.6 1,0.8 1.8,0.8 0.5,0 0.9,-0.1 1.3,-0.3 0.3,-0.2 0.6,-0.4 0.9,-0.8 l 4.7,0.4 c -0.8,1.3 -1.6,2.2 -2.6,2.7 -1.1,0.6 -2.5,0.8 -4.4,0.8 -1.7,0 -3,-0.2 -3.9,-0.7 -1,-0.4 -1.7,-1.2 -2.4,-2.2 -0.6,-1 -0.9,-2.2 -0.9,-3.6 0,-1.9 0.6,-3.5 1.9,-4.7 1.2,-1.2 2.9,-1.8 5.1,-1.8 1.8,0 3.2,0.3 4.3,0.8 1,0.6 1.8,1.3 2.3,2.4 0.6,1 0.8,2.3 0.8,4 l 0,0.5 m -4.8,-2.3 c -0.1,-0.9 -0.4,-1.6 -0.8,-2 -0.4,-0.4 -0.9,-0.6 -1.6,-0.6 -0.7,0 -1.3,0.3 -1.8,0.9 -0.3,0.4 -0.5,1 -0.5,1.7 l 4.7,0" id="text4673" style="font-size:24px;font-style:normal;font-variant:normal;font-weight:normal;font-stretch:normal;text-align:start;line-height:100%;writing-mode:lr-tb;text-anchor:start;fill:#000000;fill-opacity:1;stroke:none;font-family:Arial Black"/>
  <path d="m 414.7,269.8 a 140.9,138 0 0 1 -281.8,0 140.9,138 0 1 1 281.8,0 z" id="path4641" style="fill:url(#radialGradient4731);fill-opacity:1;fill-rule:evenodd;stroke:none"/>
  <path d="m 277.7,148.6 4.6,1.5 c -0.3,1.3 -0.8,2.3 -1.4,3.2 -0.7,0.9 -1.6,1.6 -2.6,2 -0.9,0.4 -2.2,0.7 -3.8,0.7 -1.8,0 -3.3,-0.3 -4.5,-0.8 -1.2,-0.6 -2.2,-1.5 -3.1,-2.9 -0.9,-1.4 -1.3,-3.1 -1.3,-5.3 0,-2.8 0.8,-5 2.3,-6.5 1.5,-1.5 3.6,-2.3 6.4,-2.3 2.2,0 3.9,0.4 5.1,1.3 1.2,0.9 2.2,2.2 2.8,4 l -4.7,1.1 c -0.2,-0.5 -0.4,-0.9 -0.5,-1.2 -0.3,-0.4 -0.7,-0.7 -1.1,-0.9 -0.5,-0.2 -0.9,-0.3 -1.5,-0.3 -1.2,0 -2.1,0.4 -2.7,1.4 -0.5,0.7 -0.8,1.9 -0.8,3.4 0,1.9 0.3,3.2 0.9,3.9 0.6,0.7 1.4,1.1 2.4,1.1 1.1,0 1.8,-0.3 2.3,-0.9 0.6,-0.5 0.9,-1.4 1.2,-2.5" id="text4643" style="font-size:24px;font-style:normal;font-variant:normal;font-weight:normal;font-stretch:normal;text-align:start;line-height:100%;writing-mode:lr-tb;text-anchor:start;fill:#000000;fill-opacity:1;stroke:none;font-family:Arial Black"/>
  <path d="m 383.7,273.1 a 109.9,109.3 0 0 1 -219.7,0 109.9,109.3 0 1 1 219.7,0 z" id="path4611" style="fill:url(#radialGradient4632);fill-opacity:1;fill-rule:evenodd;stroke:none"/>
  <path d="m 257.2,168.8 5,0 6.5,9.5 0,-9.5 5,0 0,17.2 -5,0 -6.5,-9.4 0,9.4 -5,0 0,-17.2 m 33.5,12.2 -9.5,0 c 0,0.7 0.2,1.3 0.6,1.7 0.4,0.5 1,0.8 1.8,0.8 0.4,0 0.9,-0.1 1.3,-0.4 0.3,-0.1 0.5,-0.4 0.8,-0.7 l 4.7,0.4 c -0.7,1.2 -1.5,2.1 -2.6,2.7 -1,0.5 -2.4,0.8 -4.3,0.8 -1.7,0 -3,-0.2 -3.9,-0.7 -1,-0.5 -1.7,-1.2 -2.4,-2.2 -0.6,-1 -0.9,-2.2 -0.9,-3.6 0,-1.9 0.6,-3.5 1.9,-4.7 1.2,-1.2 2.9,-1.8 5.1,-1.8 1.8,0 3.2,0.3 4.3,0.8 1,0.5 1.8,1.3 2.3,2.3 0.5,1.1 0.8,2.4 0.8,4 l 0,0.6 m -4.8,-2.3 c -0.1,-0.9 -0.4,-1.6 -0.8,-2 -0.4,-0.4 -0.9,-0.6 -1.6,-0.6 -0.7,0 -1.3,0.3 -1.8,0.9 -0.3,0.4 -0.5,0.9 -0.5,1.7 l 4.7,0" id="text4613" style="font-size:24px;font-style:normal;font-variant:normal;font-weight:normal;font-stretch:normal;text-align:start;line-height:100%;writing-mode:lr-tb;text-anchor:start;fill:#000000;fill-opacity:1;stroke:none;font-family:Arial Black"/>
  <path d="m 352.6,269.8 a 78.8,79.11 0 0 1 -157.6,0 78.8,79.11 0 1 1 157.6,0 z" id="path4581" style="fill:url(#radialGradient4602);fill-opacity:1;fill-rule:evenodd;stroke:none"/>
  <path d="m 265,206.1 c 0,-2.8 0.8,-4.9 2.4,-6.5 1.5,-1.6 3.7,-2.4 6.5,-2.4 2.9,0 5.1,0.8 6.6,2.4 1.6,1.5 2.3,3.6 2.3,6.4 0,2 -0.3,3.7 -1,4.9 -0.7,1.3 -1.6,2.3 -2.9,3 -1.3,0.8 -2.9,1.1 -4.8,1.1 -1.9,0 -3.5,-0.3 -4.8,-0.9 -1.3,-0.6 -2.3,-1.6 -3.1,-2.9 -0.8,-1.4 -1.2,-3.1 -1.2,-5.1 m 5.3,0.1 c 0,1.7 0.4,2.9 1,3.7 0.7,0.8 1.5,1.1 2.6,1.1 1.2,0 2.1,-0.3 2.7,-1.1 0.6,-0.7 0.9,-2 0.9,-4 0,-1.6 -0.3,-2.8 -1,-3.5 -0.6,-0.8 -1.5,-1.1 -2.6,-1.1 -1.1,0 -1.9,0.3 -2.6,1.1 -0.6,0.8 -1,2 -1,3.8" id="text4583" style="font-size:24px;font-style:normal;font-variant:normal;font-weight:normal;font-stretch:normal;text-align:start;line-height:100%;writing-mode:lr-tb;text-anchor:start;fill:#000000;fill-opacity:1;stroke:none;font-family:Arial Black"/>
  <path d="m 322.9,271.5 a 49.08,49.34 0 0 1 -98.1,0 49.08,49.34 0 1 1 98.1,0 z" id="path4541" style="fill:url(#radialGradient4549);fill-opacity:1;fill-rule:evenodd;stroke:none"/>
  <path d="m 262.5,239.5 5,-0.3 c 0.1,0.8 0.4,1.4 0.7,1.9 0.6,0.7 1.3,1 2.3,1 0.8,0 1.4,-0.2 1.8,-0.5 0.4,-0.4 0.6,-0.8 0.6,-1.3 0,-0.4 -0.2,-0.8 -0.6,-1.1 -0.4,-0.4 -1.3,-0.7 -2.7,-1 -2.3,-0.6 -4,-1.3 -5,-2.1 -1,-0.9 -1.5,-2 -1.5,-3.3 0,-0.9 0.3,-1.8 0.8,-2.5 0.5,-0.8 1.3,-1.4 2.3,-1.9 1,-0.4 2.4,-0.7 4.2,-0.7 2.2,0 3.9,0.4 5,1.3 1.2,0.8 1.9,2.1 2.1,3.8 l -5,0.3 c -0.1,-0.7 -0.4,-1.3 -0.8,-1.6 -0.5,-0.4 -1,-0.6 -1.8,-0.6 -0.6,0 -1.1,0.2 -1.4,0.4 -0.3,0.3 -0.5,0.6 -0.5,1 0,0.2 0.2,0.5 0.4,0.7 0.3,0.2 0.9,0.5 1.8,0.6 2.3,0.5 4,1.1 5,1.6 1,0.5 1.7,1.1 2.2,1.9 0.4,0.7 0.7,1.6 0.7,2.5 0,1.1 -0.3,2.1 -0.9,3.1 -0.7,0.9 -1.5,1.6 -2.6,2.1 -1.1,0.5 -2.5,0.7 -4.1,0.7 -3,0 -5,-0.6 -6.1,-1.7 -1.1,-1.1 -1.8,-2.5 -1.9,-4.3 m 18.1,-11.5 4.8,0 0,3.3 -4.8,0 0,-3.3 m 0,4.8 4.8,0 0,12.4 -4.8,0 0,-12.4" id="text4565" style="font-size:24px;font-style:normal;font-variant:normal;font-weight:normal;font-stretch:normal;text-align:start;line-height:100%;writing-mode:lr-tb;text-anchor:start;fill:#000000;fill-opacity:1;stroke:none;font-family:Arial Black"/>
  <path d="m 268.6,248.6 a 22.17,21.91 0 1 1 -44.3,0 22.17,21.91 0 1 1 44.3,0 z" transform="matrix(0.9059, 0, 0, 0.9524, 50.66, 32.85)" id="path2760" style="fill:#7678c5;fill-opacity:1;fill-rule:evenodd;stroke:none"/>
  <path d="m 259.6,260.3 13.1,0 0,3.7 -7.7,0 0,3 6.6,0 0,3.4 -6.6,0 0,7.1 -5.4,0 0,-17.2 m 28.7,12.1 -9.5,0 c 0.1,0.8 0.3,1.4 0.6,1.7 0.5,0.6 1.1,0.8 1.8,0.8 0.5,0 0.9,-0.1 1.3,-0.3 0.3,-0.2 0.6,-0.4 0.9,-0.8 l 4.7,0.4 c -0.8,1.3 -1.6,2.2 -2.6,2.7 -1.1,0.6 -2.5,0.8 -4.4,0.8 -1.7,0 -3,-0.2 -3.9,-0.6 -0.9,-0.5 -1.7,-1.3 -2.4,-2.3 -0.6,-1 -0.9,-2.2 -0.9,-3.5 0,-2 0.6,-3.6 1.9,-4.8 1.2,-1.2 3,-1.8 5.1,-1.8 1.8,0 3.2,0.3 4.3,0.8 1,0.6 1.8,1.4 2.3,2.4 0.6,1 0.8,2.3 0.8,4 l 0,0.5 m -4.8,-2.3 c -0.1,-0.9 -0.4,-1.5 -0.8,-1.9 -0.4,-0.4 -0.9,-0.6 -1.6,-0.6 -0.7,0 -1.3,0.3 -1.8,0.9 -0.3,0.3 -0.4,0.9 -0.5,1.6 l 4.7,0" id="text3647" style="font-size:24px;font-style:normal;font-variant:normal;font-weight:normal;font-stretch:normal;text-align:start;line-height:100%;writing-mode:lr-tb;text-anchor:start;fill:#ffffff;fill-opacity:1;stroke:#000000;stroke-width:1px;stroke-linecap:butt;stroke-linejoin:miter;stroke-opacity:1;font-family:Arial Black"/>
</svg>